<?xml version="1.0" standalone="no"?>
<!DOCTYPE svg PUBLIC "-//W3C//DTD SVG 20010904//EN"
 "http://www.w3.org/TR/2001/REC-SVG-20010904/DTD/svg10.dtd">
<svg version="1.0" xmlns="http://www.w3.org/2000/svg"
 width="300.000000pt" height="300.000000pt" viewBox="0 0 300.000000 300.000000"
 preserveAspectRatio="xMidYMid meet">
<metadata>
Created by potrace 1.10, written by Peter Selinger 2001-2011
</metadata>
<g transform="translate(0.000000,300.000000) scale(0.100000,-0.100000)"
fill="#000000" stroke="none">
<path d="M1260 2981 l-25 -8 25 -4 c21 -3 26 -10 30 -49 l5 -45 11 58 c12 62
10 64 -46 48z"/>
<path d="M1650 2965 c0 -24 1 -24 18 -7 21 19 19 32 -4 32 -8 0 -14 -10 -14
-25z"/>
<path d="M2781 2953 c-24 -5 -106 -55 -175 -108 -18 -14 -36 -22 -39 -18 -4 3
-7 2 -7 -3 0 -6 -22 -23 -50 -39 -27 -17 -50 -34 -50 -38 0 -5 15 1 33 12 198
129 288 181 314 181 57 0 100 -70 72 -118 -8 -14 -78 -66 -156 -116 -145 -93
-183 -121 -125 -92 30 15 143 85 167 103 6 5 26 17 45 27 50 27 71 47 85 80
19 45 0 93 -47 117 -20 10 -39 18 -40 18 -2 -1 -14 -4 -27 -6z"/>
<path d="M1195 2929 c-449 -122 -698 -293 -928 -637 -97 -145 -184 -341 -217
-488 -34 -149 -31 -437 4 -597 64 -286 202 -540 402 -741 188 -188 492 -349
760 -402 128 -26 423 -26 559 0 283 53 563 202 771 410 162 163 252 300 325
497 35 97 84 287 100 389 14 89 6 272 -15 380 -44 224 -167 486 -322 690 -137
181 -412 370 -649 449 -106 35 -292 78 -300 69 -5 -6 -36 -190 -33 -193 2 -2
61 -18 133 -35 414 -99 748 -387 904 -782 104 -263 102 -619 -6 -885 -67 -166
-142 -281 -267 -411 -196 -203 -419 -319 -724 -377 -223 -43 -505 2 -731 116
-288 144 -513 391 -634 694 -129 323 -113 644 48 981 65 135 133 229 237 329
162 157 331 266 415 269 l38 1 -2 -70 c-1 -38 -14 -137 -28 -220 -14 -82 -40
-235 -56 -340 -30 -185 -61 -381 -132 -830 -20 -121 -40 -239 -45 -262 l-10
-43 64 0 c43 0 66 4 68 12 2 7 10 63 19 123 46 329 109 522 191 589 62 50 86
60 152 60 108 0 154 -51 154 -170 0 -62 -38 -313 -54 -354 -3 -8 -14 -70 -25
-137 l-18 -123 67 0 c80 0 69 -24 105 220 13 96 32 213 40 260 8 47 15 126 15
176 0 75 -4 98 -23 135 -31 60 -89 89 -172 88 -87 -1 -116 -15 -204 -102 -81
-80 -86 -83 -111 -67 -17 10 -9 64 160 1045 23 132 44 255 47 273 3 17 4 32 2
31 -2 -1 -35 -10 -74 -20z m655 -39 c115 -26 315 -103 340 -130 3 -3 28 -19
55 -34 159 -91 303 -219 406 -363 27 -37 49 -71 49 -75 0 -3 6 -13 13 -20 44
-43 170 -341 208 -488 6 -25 13 -54 16 -65 3 -11 8 -90 10 -176 5 -151 -6
-250 -38 -354 -5 -16 -22 -73 -38 -125 -45 -151 -98 -260 -183 -382 -67 -94
-178 -214 -254 -274 -20 -16 -42 -34 -48 -40 -21 -20 -151 -101 -183 -114 -18
-7 -33 -16 -33 -21 0 -5 -4 -8 -8 -7 -5 2 -44 -14 -88 -34 -175 -82 -331 -114
-568 -117 -174 -2 -310 15 -426 55 -103 36 -117 41 -182 75 -32 16 -58 27 -58
24 0 -3 -18 6 -40 20 -22 14 -44 25 -49 25 -5 0 -11 3 -13 8 -2 4 -41 33 -88
64 -116 79 -236 195 -322 313 -45 62 -138 222 -138 238 0 7 -9 26 -20 44 -19
32 -54 139 -92 283 -29 112 -37 385 -13 511 22 121 88 315 136 399 5 8 22 40
39 70 17 30 55 88 85 128 206 279 387 414 690 516 61 21 117 40 125 43 8 3 18
6 21 5 4 -1 21 3 39 8 l32 9 -6 -52 c-3 -29 -10 -74 -15 -102 -5 -27 -16 -95
-25 -150 -25 -153 -65 -387 -88 -515 -20 -114 -27 -155 -47 -280 -5 -36 -14
-90 -20 -120 -7 -43 -6 -61 5 -84 15 -32 19 -76 6 -76 -14 0 -69 -187 -91
-310 -12 -63 -26 -140 -31 -170 -6 -30 -12 -66 -14 -80 -8 -47 -16 -58 -39
-52 -12 3 -25 10 -29 16 -7 11 -6 20 13 131 6 33 17 101 25 150 7 50 20 131
28 180 8 50 24 151 36 225 12 74 30 187 41 250 22 134 37 229 45 285 3 22 11
72 19 110 8 39 16 91 19 116 3 25 10 68 16 95 6 26 12 75 13 106 1 52 -2 61
-25 83 -29 26 -48 31 -64 16 -5 -6 -20 -12 -34 -14 -120 -22 -422 -275 -536
-448 -48 -75 -112 -204 -134 -274 -7 -22 -16 -44 -21 -49 -5 -6 -9 -20 -9 -33
0 -13 -4 -31 -9 -41 -11 -22 -28 -97 -42 -192 -21 -140 10 -381 66 -515 7 -16
16 -41 20 -55 11 -37 85 -182 103 -202 8 -10 12 -18 8 -18 -5 0 6 -16 23 -35
17 -20 31 -39 31 -43 0 -4 14 -22 31 -40 16 -17 51 -56 77 -85 66 -75 175
-169 251 -214 87 -52 123 -72 144 -78 12 -4 31 -13 42 -19 35 -22 178 -67 230
-73 27 -3 58 -10 69 -15 10 -6 88 -10 175 -10 169 0 280 16 411 59 87 28 268
116 298 144 12 10 24 19 28 19 3 0 43 29 88 64 81 63 159 141 206 205 14 19
30 39 35 45 10 10 40 56 72 111 69 117 123 261 139 375 3 19 8 49 13 65 14 54
13 285 -3 374 -8 47 -13 88 -10 92 2 4 0 10 -6 14 -5 3 -10 20 -10 37 0 16
-11 52 -25 80 -14 27 -25 54 -25 60 0 11 -27 75 -41 98 -5 8 -19 34 -30 58
-11 23 -24 42 -29 42 -5 0 -12 9 -15 20 -3 11 -12 26 -18 33 -7 6 -24 29 -38
50 -90 130 -274 281 -449 368 -36 17 -77 38 -93 46 -22 11 -184 58 -271 78
-10 2 -20 6 -21 7 -17 17 1 125 22 137 9 5 30 5 47 1 17 -4 56 -13 86 -20z
m-371 -1174 c53 -37 65 -74 64 -186 -1 -68 -4 -93 -28 -225 -8 -44 -17 -100
-19 -125 -5 -61 -25 -188 -34 -225 -7 -26 -14 -30 -46 -33 l-38 -3 7 63 c7 63
9 74 22 138 9 42 8 41 16 60 3 8 8 33 11 55 2 22 10 67 16 100 18 105 23 198
11 242 -16 59 -68 109 -122 119 -24 4 -47 7 -51 6 -5 -1 -8 4 -8 12 0 32 155
34 199 2z"/>
<path d="M1045 2919 c-27 -10 -37 -17 -21 -14 31 7 97 33 81 33 -5 0 -32 -8
-60 -19z"/>
<path d="M915 2876 c-185 -71 -327 -166 -475 -315 -58 -59 -111 -105 -120
-103 -13 2 -13 2 0 -8 10 -7 11 -12 4 -17 -36 -26 -233 -357 -220 -370 2 -3
20 26 39 63 46 94 108 194 171 278 65 85 218 239 301 301 70 52 224 134 313
165 34 13 62 24 62 26 0 7 -15 3 -75 -20z"/>
<path d="M1272 2813 c-32 -130 -75 -451 -62 -468 7 -9 -1 -91 -13 -143 -4 -13
-2 -20 4 -17 5 4 9 2 9 -3 0 -14 -36 -43 -43 -35 -4 3 -6 -9 -6 -28 1 -24 3
-27 6 -11 2 12 8 20 12 17 8 -5 39 24 40 38 1 4 3 7 6 7 3 0 8 0 11 0 3 0 -3
-12 -14 -27 -21 -31 -34 -91 -20 -99 4 -3 8 -47 8 -98 0 -74 3 -93 15 -93 8 0
16 6 19 14 3 7 0 13 -6 13 -9 0 -9 3 0 12 15 15 16 32 2 23 -14 -9 -13 8 2 23
9 9 9 12 0 12 -10 0 -10 5 -1 21 8 15 8 19 0 15 -15 -10 -14 7 1 22 9 9 8 12
-5 12 -22 0 -22 9 1 27 15 12 14 13 -8 2 l-25 -12 19 22 c14 16 20 38 21 82 1
53 -1 60 -17 56 -10 -3 -21 0 -25 5 -4 7 -1 8 7 3 9 -6 11 -4 5 5 -5 8 -4 11
2 7 6 -4 17 1 24 10 10 12 10 14 2 9 -16 -9 -17 6 -1 22 9 9 9 12 0 12 -10 0
-10 5 -1 21 8 15 8 19 0 15 -6 -4 -11 -3 -11 3 0 5 5 13 11 17 8 4 7 9 -2 14
-10 7 -10 12 2 26 9 11 9 15 2 10 -7 -4 -13 -3 -13 3 0 5 5 13 11 17 8 4 7 9
-2 14 -10 7 -10 12 2 26 9 11 9 15 2 10 -8 -4 -13 -2 -13 6 0 8 6 20 13 27 10
11 10 13 0 7 -13 -7 -18 6 -7 17 4 3 8 28 10 54 1 26 8 78 14 115 l12 68 30
-17 c17 -10 37 -28 45 -40 8 -13 20 -20 26 -16 6 3 7 1 3 -5 -9 -14 23 -64 36
-56 5 3 2 14 -8 25 -9 10 -13 19 -8 19 5 1 -1 9 -14 20 -13 10 -22 22 -22 25
1 7 -46 46 -55 45 -24 -2 -26 3 -20 60 4 33 5 60 3 60 -2 0 -9 -21 -16 -47z"/>
<path d="M1313 2803 c-34 -13 -2 -18 111 -17 103 1 123 -1 112 -12 -8 -8 -11
-24 -7 -41 l6 -28 3 28 c4 31 2 30 39 17 28 -10 28 -9 6 6 -31 22 -29 34 5 35
15 1 2 5 -28 9 -62 9 -229 11 -247 3z"/>
<path d="M1617 2773 c-7 -34 -15 -44 -43 -58 -19 -9 -34 -21 -34 -28 0 -7 15
-39 33 -72 28 -52 36 -60 61 -60 48 0 55 26 23 91 -15 31 -26 59 -23 62 6 6
139 -16 171 -28 11 -5 40 -13 64 -20 31 -8 40 -15 33 -22 -8 -8 -18 -6 -36 6
-33 21 -35 20 -29 -5 4 -12 0 -25 -8 -30 -22 -14 -49 -11 -49 6 0 7 8 18 18
24 13 8 14 12 5 22 -9 9 -15 6 -24 -14 -18 -39 -5 -61 31 -53 20 4 30 1 31 -7
1 -6 2 -19 3 -27 0 -9 11 -15 26 -15 21 0 25 5 27 30 2 27 -1 24 -13 -14 -4
-11 -8 -10 -19 5 -33 44 -3 63 54 36 22 -11 45 -16 57 -11 17 6 17 7 -6 12
-14 4 -34 8 -44 9 -11 2 -20 7 -20 13 -2 21 36 14 109 -21 56 -26 74 -39 64
-45 -10 -6 -4 -9 19 -9 18 0 32 -5 33 -12 1 -7 2 -24 2 -38 2 -18 9 -26 25
-28 12 -2 22 1 22 6 0 6 -9 8 -20 5 -15 -4 -20 0 -20 15 0 12 4 23 9 27 16 10
166 -112 261 -213 60 -62 87 -85 76 -65 -44 86 -244 253 -417 347 -73 40 -278
110 -354 121 -71 11 -83 19 -87 63 l-3 37 -8 -42z m22 -112 l30 -58 -24 -11
c-22 -10 -24 -8 -45 44 -13 30 -25 53 -27 50 -3 -2 5 -26 16 -52 29 -65 19
-67 -11 -2 l-25 53 26 17 c14 10 27 18 28 18 2 0 16 -26 32 -59z"/>
<path d="M1600 2709 c0 -4 11 -31 24 -60 14 -30 25 -47 25 -39 0 14 -48 112
-49 99z"/>
<path d="M1327 2665 c46 -48 48 -65 8 -65 -13 0 -27 -5 -30 -10 -8 -12 32 -9
53 4 16 9 15 10 66 -61 24 -34 64 -70 111 -101 49 -32 71 -52 66 -61 -6 -9
-11 -8 -21 3 -17 21 -30 11 -30 -24 0 -24 3 -28 18 -23 15 6 16 5 2 -13 -14
-19 -14 -19 8 0 12 11 22 24 22 30 0 6 4 17 9 24 18 30 121 -49 121 -93 0 -42
-32 -65 -92 -65 -50 0 -129 32 -115 47 3 3 16 -2 29 -11 32 -23 120 -21 141 2
10 10 17 23 17 28 0 4 -7 -2 -16 -14 -12 -17 -25 -22 -59 -22 -66 0 -88 13
-166 94 -70 74 -95 88 -169 100 -26 5 -30 4 -15 -3 11 -5 36 -12 55 -15 40 -7
98 -50 132 -99 17 -24 8 -20 -35 21 -31 28 -68 57 -82 62 -35 13 -88 13 -80 0
4 -6 14 -8 24 -5 21 6 100 -44 136 -87 14 -16 25 -26 25 -21 0 4 11 -9 25 -28
22 -33 40 -47 70 -55 111 -28 121 -27 160 8 30 28 40 64 23 86 -6 6 -7 12 -3
12 5 0 1 8 -8 18 -10 10 -14 22 -10 27 5 4 3 5 -3 2 -11 -7 -38 16 -30 24 3 2
-11 14 -29 26 -19 13 -37 19 -40 14 -3 -5 11 -19 30 -31 60 -37 38 -33 -36 7
-90 48 -159 110 -211 187 -41 61 -97 126 -108 126 -4 0 13 -20 37 -45z"/>
<path d="M2410 2687 c0 -2 28 -26 63 -52 34 -27 54 -40 44 -29 -18 21 -107 88
-107 81z"/>
<path d="M1410 2591 c0 -27 164 -171 194 -171 17 0 2 22 -21 33 -15 6 -35 19
-43 27 -8 8 -31 28 -50 44 -19 15 -29 25 -23 21 9 -4 11 -1 7 9 -3 9 -10 14
-15 11 -4 -3 -13 4 -19 15 -11 20 -30 28 -30 11z"/>
<path d="M2904 2549 c-43 -28 -98 -67 -121 -86 -24 -19 -43 -31 -43 -27 0 4
-9 -5 -21 -19 -22 -29 -17 -50 18 -78 12 -10 10 -4 -6 19 -13 18 -22 35 -20
37 2 1 65 44 140 93 128 84 163 112 142 112 -5 0 -45 -23 -89 -51z"/>
<path d="M1300 2538 c0 -10 5 -16 10 -13 6 4 10 -6 10 -23 0 -21 6 -31 20 -35
26 -7 31 3 20 42 -6 23 -6 30 3 24 8 -5 8 -2 -1 9 -18 23 -62 20 -62 -4z"/>
<path d="M2877 2429 c-65 -44 -116 -83 -114 -86 6 -6 53 19 112 60 22 15 59
40 83 55 23 15 42 33 42 39 0 7 -1 13 -2 12 -2 0 -56 -36 -121 -80z"/>
<path d="M1469 2437 c7 -9 9 -17 3 -17 -5 0 -9 -11 -8 -24 0 -13 3 -24 6 -24
3 0 14 0 25 -2 20 -1 20 -1 0 -10 -16 -7 -17 -9 -3 -9 23 -1 32 17 18 34 -6 8
-9 18 -6 23 3 6 -7 18 -22 28 -24 15 -25 15 -13 1z"/>
<path d="M2222 2380 c-12 -13 -22 -30 -22 -37 0 -7 -4 -12 -9 -10 -10 3 -56
-44 -65 -68 -10 -28 24 -75 56 -75 15 0 28 5 28 10 0 6 -10 8 -24 4 -27 -6
-46 14 -25 26 18 12 35 0 18 -12 -12 -8 -12 -9 0 -6 8 2 16 16 18 31 4 32 3
33 -27 7 -13 -11 -25 -18 -28 -16 -8 9 8 56 19 56 6 0 7 -5 3 -11 -5 -8 -1 -8
13 0 11 6 24 7 28 3 3 -4 5 0 3 8 -2 10 3 14 15 12 9 -2 17 2 17 9 0 7 -9 9
-21 6 -13 -3 -19 -1 -16 6 3 7 10 11 16 10 6 -2 11 2 11 8 0 5 5 7 10 4 6 -4
9 -1 8 6 -2 6 3 14 11 17 9 3 11 0 7 -7 -4 -6 -4 -11 1 -10 20 3 33 -2 31 -13
-2 -7 3 -12 10 -10 6 1 12 -7 12 -19 0 -13 -4 -18 -12 -13 -6 4 -8 3 -5 -3 9
-14 -9 -27 -53 -41 -31 -10 -33 -10 -17 2 12 9 14 16 8 21 -6 3 -11 1 -11 -5
0 -6 -3 -9 -8 -6 -4 2 -8 -9 -8 -25 -2 -30 10 -39 19 -15 3 8 24 20 47 27 32
10 42 18 49 43 6 23 5 34 -5 42 -8 6 -14 14 -14 18 0 3 -10 16 -21 27 -16 16
-23 18 -29 9 -6 -10 -9 -9 -12 1 -3 8 -11 5 -26 -11z"/>
<path d="M1895 2341 c-45 -9 -40 -37 6 -33 34 3 37 1 42 -30 2 -18 1 -34 -4
-36 -15 -6 -10 -22 6 -22 9 0 15 -9 14 -22 -1 -17 -2 -19 -6 -5 -5 18 -18 23
-27 8 -8 -12 21 -34 34 -26 5 3 10 1 10 -5 0 -6 8 -13 18 -17 20 -7 62 -43 62
-53 0 -4 -19 -10 -42 -14 -24 -4 -53 -9 -65 -13 -17 -4 -23 -1 -23 11 0 9 -5
16 -11 16 -6 0 -9 -9 -6 -20 3 -11 1 -20 -3 -20 -5 0 -15 -3 -24 -6 -24 -9
-20 18 9 61 24 35 25 41 15 91 -6 30 -9 63 -5 74 4 11 2 20 -4 20 -14 0 -14
-36 0 -100 10 -47 9 -53 -11 -75 -29 -31 -37 -93 -16 -133 19 -37 44 -52 83
-51 27 1 27 1 -6 9 -38 9 -66 34 -76 70 -7 22 -6 23 8 12 12 -10 26 -11 59 -3
l43 10 -47 -5 c-73 -8 -58 12 21 30 79 18 115 20 106 7 -3 -5 -1 -12 5 -16 13
-8 13 31 0 56 -6 11 -28 30 -49 43 -35 23 -40 30 -52 93 -7 37 -13 74 -13 82
-1 18 -12 20 -51 12z"/>
<path d="M1628 2299 c-16 -17 -15 -18 10 -28 24 -10 24 -11 3 -7 -17 4 -21 2
-13 -6 17 -17 42 -1 42 26 0 13 6 26 13 29 6 2 1 4 -13 4 -14 0 -33 -8 -42
-18z"/>
<path d="M2261 2304 c-12 -14 -12 -17 0 -25 15 -10 31 -8 30 4 -1 4 -1 14 -1
22 0 19 -11 19 -29 -1z"/>
<path d="M588 2223 c6 -31 13 -34 42 -17 l25 13 -24 1 c-15 0 -21 5 -18 13 3
7 -3 13 -12 13 -13 0 -16 -7 -13 -23z"/>
<path d="M2453 2183 c-24 -35 -19 -67 13 -88 14 -9 22 -20 19 -25 -3 -4 3 -6
14 -3 10 3 22 0 25 -6 4 -6 1 -9 -7 -5 -19 7 -67 -51 -67 -82 0 -14 4 -22 10
-19 6 3 10 17 10 29 0 37 25 52 55 32 34 -22 34 -69 0 -92 -23 -15 -27 -15
-57 3 -32 18 -33 21 -38 98 -4 65 -8 80 -22 83 -21 4 -58 -32 -58 -57 0 -14
-6 -19 -17 -16 -30 6 -73 24 -73 31 0 6 17 3 67 -11 10 -3 0 3 -22 14 -51 25
-60 16 -61 -57 0 -50 -4 -61 -32 -91 -18 -18 -32 -42 -32 -52 0 -15 -7 -19
-40 -19 -22 0 -40 -4 -40 -10 0 -6 30 -10 70 -10 56 0 72 -3 77 -16 13 -34
-11 -49 -83 -52 -37 -2 -74 -8 -81 -14 -8 -7 -13 -36 -13 -84 0 -60 -3 -75
-18 -83 -11 -6 -24 -6 -35 0 -13 8 -17 26 -19 87 l-2 77 -3 -63 c-3 -39 -8
-62 -15 -60 -16 6 -39 80 -27 94 6 8 3 11 -13 9 -39 -4 -41 -5 -36 -11 3 -3
-5 -16 -18 -29 -19 -19 -31 -23 -54 -19 -25 6 -31 3 -40 -20 -6 -16 -17 -26
-29 -26 -28 0 -36 -19 -17 -38 16 -16 18 -15 34 6 11 14 24 21 34 17 16 -6 54
23 43 33 -3 3 -11 -3 -19 -13 -7 -10 -18 -15 -25 -11 -9 6 -8 13 4 26 19 21
43 16 63 -12 14 -19 72 -25 72 -7 0 5 5 7 10 4 7 -4 7 -12 0 -24 -5 -10 -6
-22 -2 -25 4 -4 -1 -12 -11 -17 -9 -6 -17 -16 -17 -24 0 -18 19 -30 30 -19 15
15 19 63 7 68 -8 3 -8 5 1 5 7 1 10 6 6 13 -4 7 -3 8 4 4 7 -4 12 -16 12 -27
0 -10 6 -19 13 -19 8 0 7 -4 -3 -10 -9 -6 -10 -10 -3 -10 6 0 15 5 18 10 5 8
12 7 23 -2 12 -10 14 -10 8 0 -4 6 -2 12 3 12 6 0 11 -5 11 -11 0 -6 7 -4 15
5 11 11 15 38 15 105 l0 91 30 0 c35 0 34 1 15 -36 -23 -44 -19 -49 32 -49 33
0 47 -4 45 -12 -1 -7 2 -13 8 -13 5 0 10 8 10 18 0 9 3 27 6 40 5 17 2 22 -12
22 -16 0 -17 -2 -4 -10 12 -8 10 -10 -10 -11 -17 -1 -19 -3 -7 -6 32 -8 17
-19 -23 -15 -44 4 -53 18 -17 25 l22 4 -23 2 c-13 0 -20 6 -17 11 4 6 11 8 16
4 5 -3 9 -2 8 3 -3 19 2 21 30 13 42 -12 63 7 65 59 2 47 -6 56 -46 53 -28 -2
-33 4 -22 31 5 14 10 14 41 1 19 -8 40 -13 45 -12 6 2 -8 10 -32 17 -30 9 -39
16 -32 23 8 8 23 5 52 -10 l41 -20 -20 34 c-19 32 -19 34 -3 46 10 7 25 24 34
37 l16 23 17 -31 c9 -18 31 -39 50 -48 33 -16 40 -42 17 -65 -10 -10 -52 19
-52 38 0 8 -5 14 -11 14 -7 0 -9 -10 -4 -27 4 -16 7 -28 8 -28 1 -1 15 -7 31
-15 29 -15 29 -15 6 -18 -32 -5 -50 -25 -50 -56 0 -14 -4 -26 -10 -26 -5 0
-10 9 -10 21 0 11 -4 17 -10 14 -5 -3 -10 1 -10 10 0 9 4 14 8 11 4 -2 12 11
18 30 11 35 4 43 -25 25 -32 -20 -22 -141 12 -141 7 0 23 -13 35 -30 27 -36
38 -37 69 -8 19 18 23 19 23 5 0 -8 -9 -19 -20 -22 -21 -7 -28 -25 -9 -25 6 0
9 -7 5 -15 -3 -8 -1 -15 4 -15 5 0 10 12 12 27 3 27 28 46 28 21 0 -7 9 -24
19 -37 21 -28 18 -51 -8 -51 -11 -1 -8 -5 9 -15 22 -12 26 -12 37 2 7 8 19 13
28 10 22 -9 18 8 -6 24 -18 13 -19 18 -9 59 6 25 12 52 12 60 0 8 5 21 11 28
7 8 5 12 -7 12 -13 0 -15 6 -10 25 6 23 4 25 -19 21 -14 -2 -33 1 -42 8 -18
13 -37 83 -25 91 11 7 80 -56 80 -72 0 -7 6 -12 13 -10 6 1 11 -4 9 -11 -1 -8
2 -11 8 -7 6 4 30 -7 55 -23 40 -27 42 -30 28 -45 -15 -15 -14 -16 5 -10 16 4
22 1 22 -12 0 -11 -5 -15 -14 -12 -11 4 -15 -6 -18 -41 -3 -26 -8 -56 -12 -67
-6 -16 -4 -15 13 5 11 14 21 38 21 54 0 16 3 26 7 23 3 -4 12 1 19 11 21 30 0
112 -36 142 -31 26 -37 48 -20 80 7 12 6 30 -4 56 -12 36 -13 37 -20 13 -13
-44 -16 -130 -6 -150 16 -29 -6 -24 -36 9 -36 37 -44 56 -34 72 7 11 12 11 23
2 12 -10 15 -8 19 12 3 14 0 27 -7 29 -6 3 -10 20 -9 38 1 19 -1 38 -5 44 -16
21 -20 44 -7 39 41 -16 16 79 -30 115 -35 28 -49 26 -71 -6z m92 -39 c29 -50
29 -49 -2 -58 -19 -6 -23 -2 -32 31 -24 84 -7 97 34 27z m-256 -105 c38 -13
39 -31 4 -59 -20 -16 -28 -18 -34 -8 -7 11 -10 78 -4 78 1 0 16 -5 34 -11z
m385 -233 c3 2 0 -3 -7 -11 -8 -9 -21 -13 -30 -9 -20 7 -23 24 -5 24 9 0 9 3
0 12 -7 7 -12 17 -12 23 0 5 11 -2 24 -17 13 -15 27 -25 30 -22z m-224 6 c0
-12 50 -33 61 -27 13 9 11 -19 -3 -33 -23 -23 -48 -13 -64 23 -17 41 -17 45
-4 45 6 0 10 -4 10 -8z m-43 -23 c1 -12 9 -29 17 -38 22 -24 20 -28 -11 -34
-38 -7 -65 17 -56 52 10 43 48 57 50 20z m127 -98 c-8 -57 -12 -65 -30 -50
-27 22 -11 96 21 96 12 0 14 -9 9 -46z m-594 -16 c20 -25 8 -49 -25 -49 -31 0
-43 19 -31 50 7 18 40 18 56 -1z"/>
<path d="M535 2160 c-3 -5 -18 -11 -33 -11 -26 -2 -26 -2 -3 -6 13 -3 33 0 45
6 12 6 41 12 66 14 41 3 41 4 -12 5 -31 1 -60 -2 -63 -8z"/>
<path d="M1270 2163 c0 -6 15 -23 33 -37 l32 -26 -32 0 c-25 0 -33 -4 -32 -17
0 -11 3 -13 6 -5 2 6 19 12 36 11 l32 -1 -37 -16 c-21 -10 -38 -20 -38 -25 0
-4 17 1 39 12 l38 20 36 -37 c20 -21 33 -42 29 -48 -9 -14 -41 -31 -90 -48
l-37 -13 4 51 c1 28 -1 47 -5 43 -4 -4 -9 -30 -10 -58 -2 -50 -1 -50 25 -44
38 10 124 58 129 73 2 7 -32 50 -77 95 -44 45 -81 77 -81 70z"/>
<path d="M760 2118 c0 -49 -42 -88 -99 -90 -45 -1 -45 -1 -8 -5 42 -5 46 -26
6 -31 -13 -2 -28 -8 -33 -12 -5 -5 0 -7 11 -4 22 6 40 -11 23 -21 -16 -10 -12
-21 8 -22 14 -1 19 6 20 27 0 18 15 43 41 71 33 35 41 52 41 82 0 20 -2 37 -5
37 -3 0 -5 -14 -5 -32z"/>
<path d="M483 2076 c2 -37 27 -66 27 -31 0 9 -4 13 -10 10 -16 -10 -12 2 8 21
15 16 15 17 0 11 -11 -4 -18 0 -22 11 -2 9 -4 -1 -3 -22z"/>
<path d="M1626 2088 c-9 -12 -16 -26 -16 -30 0 -5 -24 -32 -53 -61 -44 -44
-53 -60 -54 -90 -1 -44 29 -61 53 -30 9 10 13 12 9 6 -8 -17 10 -17 35 -1 25
16 54 1 58 -32 4 -22 2 -22 -65 -16 -37 4 -76 10 -86 12 -10 3 -20 -1 -24 -12
-7 -19 36 -60 75 -70 12 -4 22 -11 22 -18 0 -7 4 -6 9 2 5 8 24 17 42 21 32 6
34 9 36 54 2 48 -14 77 -43 77 -16 0 -16 6 -4 35 8 18 9 18 9 2 1 -25 30 -33
45 -12 12 17 14 15 26 -20 14 -43 8 -130 -12 -172 -8 -17 -27 -33 -48 -41 -23
-8 -26 -11 -10 -9 14 3 34 8 45 13 17 7 18 6 7 -8 -7 -9 -26 -21 -43 -28 -40
-17 -23 -34 19 -19 36 12 60 45 44 61 -6 6 -4 23 4 46 15 44 18 130 5 166 -6
13 -31 45 -56 70 -25 26 -43 51 -39 57 4 8 9 7 15 -2 6 -10 12 -4 23 21 21 51
2 71 -28 28z m-13 -142 c-8 -28 -16 -52 -18 -54 -2 -2 -22 5 -46 15 l-43 19
37 41 c29 31 42 39 61 36 l24 -5 -15 -52z m51 15 c14 -15 14 -20 3 -29 -19
-16 -30 -3 -14 16 10 13 9 15 -5 9 -12 -4 -18 -2 -18 8 0 20 13 19 34 -4z
m-14 -147 c26 -9 -19 -34 -63 -34 -36 0 -97 31 -97 49 0 7 130 -5 160 -15z"/>
<path d="M826 2055 c-4 -11 -1 -15 12 -13 13 2 16 -3 14 -24 -1 -14 2 -29 8
-33 6 -4 10 10 10 36 0 23 -3 39 -7 36 -3 -4 -12 -2 -18 3 -9 8 -14 6 -19 -5z"/>
<path d="M775 2040 c-10 -11 -21 -17 -25 -15 -9 6 -33 -22 -36 -41 -1 -7 3
-12 9 -11 7 1 14 -15 17 -36 l5 -39 30 33 c24 25 25 29 8 20 -16 -8 -21 -8
-19 2 3 20 17 38 26 32 4 -3 10 4 13 15 3 11 0 20 -5 20 -7 0 -6 5 1 14 19 22
-4 28 -24 6z m15 -5 c-7 -8 -9 -15 -4 -15 4 0 -3 -11 -16 -25 -18 -19 -26 -22
-37 -14 -10 9 -10 15 -2 25 6 8 15 12 19 9 4 -2 15 4 25 15 21 23 33 27 15 5z"/>
<path d="M71 1996 c-18 -50 -40 -132 -25 -96 33 80 55 142 51 146 -3 3 -14
-19 -26 -50z"/>
<path d="M2025 2030 l-40 -5 3 -85 c5 -104 12 -119 12 -24 0 72 10 94 41 94
23 0 29 -20 29 -90 0 -32 5 -62 10 -65 6 -4 10 26 10 83 0 99 -1 101 -65 92z"/>
<path d="M1184 1930 c0 -49 3 -87 7 -84 4 2 10 0 13 -5 7 -10 -19 -23 -28 -14
-3 4 -7 45 -8 92 l-2 86 -5 -90 c-6 -89 -6 -90 24 -123 29 -32 29 -34 11 -48
-11 -8 -16 -14 -11 -14 5 0 16 6 24 14 26 23 108 46 164 46 75 0 127 -18 162
-55 64 -68 70 -165 25 -461 -47 -317 -58 -374 -71 -390 -16 -20 -132 -19 -149
1 -15 18 -9 85 26 264 13 69 23 140 23 156 -1 17 -8 -4 -18 -48 -9 -43 -20
-75 -24 -71 -4 5 -5 1 -1 -9 11 -29 -12 -19 -49 23 -20 21 -39 35 -42 31 -2
-5 3 -12 12 -15 14 -6 14 -8 -3 -21 -14 -11 -15 -14 -3 -9 9 3 25 -3 34 -13
10 -10 22 -19 27 -19 4 -1 13 -2 19 -3 6 0 9 -11 6 -24 -6 -23 -31 -173 -40
-238 l-5 -36 95 0 c82 1 97 -1 109 -18 23 -31 0 -45 -121 -70 -28 -6 -29 -5
-13 11 9 9 38 23 65 30 26 7 38 13 25 13 -12 1 -39 -6 -58 -14 l-36 -15 6 28
c12 52 -13 -3 -29 -64 -20 -76 -19 -120 1 -128 23 -9 141 21 204 52 74 36 75
53 7 120 l-53 52 23 113 c13 61 24 124 25 140 1 15 6 27 10 27 12 0 77 -61
100 -94 15 -22 5 -16 -33 22 -54 51 -93 74 -51 29 12 -13 19 -27 15 -31 -5 -4
-1 -6 7 -4 8 2 14 -2 15 -9 0 -6 4 -15 9 -20 5 -5 6 -3 2 5 -4 6 -2 12 3 12 6
0 11 -7 11 -15 0 -8 5 -15 11 -15 5 0 8 -4 5 -8 -6 -10 33 -45 55 -50 7 -2 17
-9 21 -15 16 -26 126 -31 164 -8 26 16 30 25 31 65 1 25 -3 46 -8 46 -5 0 -9
-18 -9 -40 0 -34 -4 -42 -30 -55 -52 -27 -122 -16 -167 27 -12 11 -26 17 -32
14 -7 -5 -8 -1 -5 9 6 14 8 14 23 1 25 -22 86 -46 119 -46 45 0 85 36 80 72
-3 16 0 32 5 35 6 4 7 1 2 -7 -5 -9 -4 -11 4 -6 8 5 3 17 -16 40 -15 18 -31
32 -34 30 -4 -2 -19 8 -33 21 -15 14 -31 25 -36 25 -5 0 -25 14 -45 31 -19 17
-35 28 -35 25 0 -10 -34 25 -59 62 -12 18 -26 30 -30 27 -5 -2 -14 6 -21 19
-10 19 -10 42 0 114 7 49 10 116 6 149 -3 32 -7 69 -9 83 -2 29 -59 90 -108
116 -41 22 -197 26 -222 6 -20 -17 -60 -24 -51 -10 5 7 2 8 -6 3 -9 -6 -11 -4
-5 5 6 9 4 11 -5 5 -9 -6 -11 -4 -5 5 6 9 4 11 -5 5 -9 -6 -11 -4 -6 4 6 9 12
8 26 -4 19 -17 46 -12 34 6 -3 5 -9 7 -14 4 -5 -3 -11 -1 -14 4 -4 5 -1 13 5
17 8 4 9 3 5 -4 -5 -8 -1 -10 9 -5 13 4 14 8 4 14 -7 4 -16 6 -20 3 -16 -9
-22 21 -20 97 1 44 -2 79 -6 79 -4 0 -8 -40 -9 -90z m436 -635 c4 0 12 -4 17
-9 5 -5 3 -6 -4 -2 -7 4 -13 3 -13 -2 0 -15 26 -33 35 -24 5 4 5 2 2 -4 -9
-15 38 -58 54 -49 7 5 10 4 6 -2 -4 -6 29 -34 73 -62 90 -59 93 -62 97 -112 3
-30 -1 -41 -19 -53 -56 -40 -120 -13 -225 93 -89 90 -86 80 -67 215 6 46 7 48
21 30 7 -10 18 -19 23 -19z m-20 -571 c0 -16 -126 -71 -188 -82 -68 -12 -76
-6 -67 56 l7 50 56 11 c31 6 73 19 92 29 l35 18 32 -36 c18 -19 32 -40 33 -46z"/>
<path d="M1619 1243 c12 -18 42 -47 66 -64 35 -25 42 -35 34 -46 -8 -8 -8 -13
-1 -13 6 0 12 5 14 11 3 8 18 4 46 -10 61 -31 51 -18 -15 19 -31 18 -81 55
-112 84 -43 40 -50 44 -32 19z"/>
<path d="M1648 1125 c-5 -26 5 -38 33 -40 10 -1 15 5 14 14 -2 9 -4 24 -4 34
-1 28 -38 21 -43 -8z"/>
<path d="M1739 1105 c-3 -3 -4 -18 -1 -35 5 -32 28 -41 39 -14 9 25 -22 66
-38 49z"/>
<path d="M1804 1016 c8 -12 22 -20 31 -19 12 1 14 -2 6 -10 -7 -7 -15 -6 -28
3 -17 13 -17 13 -1 -5 20 -22 46 -8 43 25 -2 29 -12 35 -32 19 -9 -8 -14 -9
-10 -3 3 6 0 11 -9 11 -12 0 -12 -3 0 -21z"/>
<path d="M810 1991 c0 -7 14 -24 31 -38 24 -20 30 -32 27 -54 -3 -15 -1 -26 4
-23 20 13 7 61 -27 94 -19 19 -35 28 -35 21z"/>
<path d="M2020 1916 c0 -60 -4 -87 -14 -95 -9 -8 -43 -11 -88 -10 -61 2 -74 0
-76 -14 -3 -15 7 -17 75 -17 48 0 84 -5 91 -12 7 -7 12 -44 12 -95 0 -67 3
-83 15 -83 12 0 15 16 15 83 0 51 5 88 12 95 7 7 43 12 90 12 63 0 78 3 78 15
0 12 -15 15 -71 15 -105 0 -109 4 -109 105 0 69 -3 85 -15 85 -12 0 -15 -16
-15 -84z"/>
<path d="M649 1885 c-1 -19 -2 -39 -3 -45 0 -5 -16 -24 -35 -41 -27 -24 -31
-33 -20 -40 8 -4 14 -13 14 -19 0 -5 5 -10 10 -10 6 0 10 8 10 18 -1 10 -7 16
-15 14 -9 -2 -5 7 9 22 14 14 27 26 29 26 3 0 2 -3 -1 -7 -4 -3 0 -14 8 -23
14 -15 13 -19 -5 -35 -23 -21 -27 -65 -6 -65 31 0 40 31 41 138 2 74 0 89 -4
49 -7 -72 -27 -72 -23 1 2 28 1 52 -2 52 -3 0 -7 -16 -7 -35z"/>
<path d="M758 1821 c3 -58 1 -69 -18 -86 l-22 -20 4 83 c1 45 0 82 -4 82 -5 0
-8 -35 -8 -77 0 -65 -3 -81 -22 -102 -13 -14 -19 -23 -14 -19 5 4 17 -3 28
-15 18 -21 18 -21 16 -2 -3 18 2 20 60 19 52 -2 62 1 58 13 -4 9 1 17 14 20
33 9 22 21 -12 14 -18 -4 -33 -12 -33 -18 0 -6 -4 -15 -9 -20 -5 -4 -6 -3 -2
4 3 6 2 14 -3 17 -7 5 -8 25 -2 43 1 1 11 -1 24 -6 12 -5 31 -5 42 0 17 6 17
8 3 8 -10 1 -18 6 -18 12 0 6 7 8 16 5 13 -5 15 -1 12 19 -3 14 -1 25 3 25 11
0 12 30 2 31 -5 1 -23 2 -40 4 -33 3 -33 2 -33 -40 0 -26 -6 -47 -15 -55 -13
-11 -15 -4 -15 53 0 36 -3 68 -7 70 -5 3 -7 -25 -5 -62z m100 -1 c-1 -17 -6
-30 -14 -30 -8 0 -12 10 -10 28 4 33 4 32 15 32 5 0 9 -13 9 -30z m-83 -90
c-3 -5 -1 -11 5 -15 18 -11 1 -23 -30 -20 -17 1 -33 -1 -36 -6 -3 -5 -10 -7
-15 -3 -6 4 -6 11 2 20 6 7 15 12 19 9 4 -2 15 4 25 15 17 18 41 18 30 0z"/>
<path d="M1817 1843 c-12 -12 -7 -80 6 -92 14 -11 142 -9 154 3 4 3 -23 6 -59
6 -73 0 -101 17 -81 48 7 12 27 18 72 20 33 2 61 7 61 12 0 11 -143 14 -153 3z"/>
<path d="M481 1753 c0 -35 2 -63 7 -63 4 0 6 21 4 48 -5 75 -10 82 -11 15z"/>
<path d="M1123 1795 c0 -8 5 -15 10 -15 5 0 7 -7 4 -15 -8 -20 8 -28 23 -10 7
8 17 12 24 8 6 -4 5 1 -3 10 -8 10 -16 15 -19 12 -3 -3 -13 2 -22 10 -15 13
-17 13 -17 0z"/>
<path d="M562 1722 c-3 -32 -16 -41 -67 -43 -22 -1 -32 -3 -21 -6 10 -3 38 -2
62 2 40 6 44 9 44 35 0 37 -15 47 -18 12z"/>
<path d="M2569 1703 c-5 -16 -12 -34 -14 -40 -2 -7 2 -13 9 -13 9 0 15 15 18
40 4 47 1 50 -13 13z"/>
<path d="M1084 1685 c-3 -8 -4 -20 -1 -27 4 -8 6 -6 6 5 1 10 9 17 21 17 11 0
20 5 20 10 0 16 -40 12 -46 -5z"/>
<path d="M431 1652 c16 -26 70 -30 89 -7 11 13 8 15 -13 15 -14 0 -29 -4 -32
-10 -4 -6 -16 -3 -32 7 -26 17 -26 17 -12 -5z"/>
<path d="M575 1661 c-12 -11 9 -18 48 -14 38 4 47 1 61 -18 12 -17 16 -19 16
-7 0 8 -6 20 -12 26 -13 10 -106 21 -113 13z"/>
<path d="M773 1663 c14 -9 -4 -23 -29 -23 -14 0 -23 -4 -19 -10 3 -5 12 -7 20
-3 9 3 15 -1 15 -8 0 -8 5 -6 13 5 7 10 29 21 47 26 l35 8 -32 1 c-17 1 -37 3
-45 4 -7 2 -10 2 -5 0z"/>
<path d="M382 1655 c4 -4 3 -13 -2 -20 -13 -16 15 -54 39 -52 25 2 16 17 -10
17 -15 0 -18 5 -15 25 3 13 -1 28 -7 31 -7 4 -9 4 -5 -1z"/>
<path d="M1227 1643 c-3 -5 -8 -30 -12 -58 -4 -27 -11 -57 -16 -66 -5 -10 -1
-19 13 -28 19 -12 19 -12 -4 -33 -15 -14 -19 -22 -10 -25 18 -7 16 -125 -5
-167 -9 -19 -21 -32 -26 -29 -6 4 -7 1 -2 -6 5 -9 17 -4 41 20 l34 33 0 178 0
178 43 0 c89 0 131 -52 123 -155 -3 -33 -5 -66 -5 -72 -1 -7 -7 -13 -15 -13
-30 0 -58 -36 -61 -76 -2 -21 -1 -33 2 -26 3 6 14 12 25 12 15 0 18 4 13 21
-5 16 1 28 24 50 29 26 31 32 31 104 0 123 -33 165 -132 165 -31 0 -59 -3 -61
-7z"/>
<path d="M310 1627 c0 -3 11 -18 24 -32 17 -19 23 -34 20 -53 -3 -15 -7 -28
-9 -31 -9 -9 29 -28 47 -23 28 7 22 21 -7 16 -24 -4 -25 -3 -19 33 5 33 2 42
-25 67 -17 17 -31 27 -31 23z"/>
<path d="M1296 1615 c-3 -8 -1 -15 4 -15 5 0 7 -8 4 -17 -5 -15 -4 -16 6 -3 9
13 11 12 8 -4 -5 -30 -25 -30 -35 1 -5 15 -12 23 -15 17 -4 -5 2 -21 12 -34
18 -24 20 -24 37 -7 15 15 16 21 5 38 -7 11 -10 24 -7 29 4 6 2 10 -3 10 -6 0
-12 -7 -16 -15z"/>
<path d="M2414 1602 c-20 -13 -35 -77 -25 -105 5 -14 7 -29 3 -33 -4 -5 0 -3
10 4 12 10 18 10 24 1 5 -8 3 -9 -6 -4 -9 5 -11 4 -6 -3 10 -17 34 -15 64 6
56 38 131 65 117 42 -4 -6 -11 -8 -16 -4 -5 3 -8 2 -7 -3 4 -11 -24 -76 -35
-84 -5 -4 0 -16 11 -27 20 -20 20 -25 6 -98 -3 -18 -1 -41 6 -53 14 -27 50
-42 67 -29 7 6 16 2 27 -14 23 -33 40 -10 40 56 1 30 4 49 8 43 5 -7 8 -3 8
11 0 12 -4 22 -10 22 -5 0 -10 7 -10 16 0 8 4 13 9 10 13 -8 21 46 21 144 0
69 -3 89 -15 94 -18 6 -19 2 -4 -26 9 -16 8 -19 -3 -16 -7 3 -14 14 -16 26 -5
30 -19 28 -19 -2 0 -14 6 -27 13 -30 23 -9 16 -31 -11 -32 -21 -2 -25 3 -25
25 -1 23 -2 24 -14 9 -13 -17 -56 -15 -56 3 0 5 -7 6 -15 3 -8 -4 -13 -10 -10
-14 3 -4 -2 -10 -9 -13 -8 -3 -17 -1 -20 6 -2 7 -5 4 -5 -5 -1 -10 -5 -18 -10
-18 -16 0 -41 30 -41 50 0 43 -19 60 -46 42z m216 -154 c0 -24 -4 -49 -9 -56
-14 -23 -44 -9 -53 23 -9 36 13 75 42 75 17 0 20 -7 20 -42z m80 3 c-1 -3 -7
-17 -15 -31 -8 -14 -14 -35 -15 -48 0 -15 -5 -22 -12 -19 -17 5 -15 81 1 101
12 14 41 12 41 -3z m-44 -166 c1 -47 -1 -55 -17 -55 -20 0 -25 15 -9 25 17 10
11 23 -8 18 -12 -3 -25 4 -36 21 -9 14 -15 26 -14 27 2 0 19 3 38 6 19 2 37 7
39 9 2 2 5 4 5 4 1 0 2 -25 2 -55z"/>
<path d="M720 1521 c0 -11 6 -21 13 -24 6 -2 9 -8 5 -12 -4 -4 -16 -2 -25 6
-17 13 -17 13 -3 -6 8 -11 15 -22 17 -24 1 -2 9 4 18 13 15 15 15 17 1 32 -9
8 -14 20 -11 25 4 5 1 9 -4 9 -6 0 -11 -9 -11 -19z"/>
<path d="M2300 1515 c0 -8 4 -15 9 -15 10 0 25 -69 18 -77 -3 -2 -15 1 -27 7
-16 9 -25 9 -36 -1 -21 -17 -17 -36 9 -43 20 -6 21 -7 4 -17 -15 -8 -16 -14
-6 -25 10 -12 8 -17 -6 -28 -27 -19 -12 -50 19 -42 26 7 42 -17 31 -46 -7 -19
20 -42 40 -34 8 3 15 12 15 20 0 10 6 13 18 9 14 -5 15 -3 5 7 -10 11 -9 17 4
32 9 10 12 18 7 18 -5 0 -15 -9 -22 -20 -7 -12 -17 -18 -21 -15 -5 3 -7 -3 -4
-14 6 -23 -8 -33 -27 -20 -10 6 -11 12 -5 17 13 9 17 32 6 32 -5 0 -11 10 -14
22 -5 18 -8 19 -22 8 -13 -11 -18 -11 -28 0 -10 10 -9 11 2 5 9 -5 12 -4 8 2
-4 6 0 16 9 23 11 10 12 15 3 21 -10 6 -10 11 1 24 12 14 12 18 -1 26 -8 5
-17 9 -21 9 -5 0 -8 4 -8 9 0 4 17 8 37 7 32 -1 37 3 44 27 4 16 4 25 -2 21
-5 -3 -9 2 -9 10 0 28 18 26 29 -4 5 -17 16 -30 23 -29 10 0 10 2 1 6 -7 2
-13 16 -13 30 0 16 -7 27 -20 30 -11 3 -20 9 -20 14 0 5 -7 9 -15 9 -8 0 -15
-7 -15 -15z"/>
<path d="M1718 1504 c-22 -22 52 -214 87 -228 19 -7 50 7 57 26 3 7 -10 47
-29 88 -24 55 -43 81 -68 98 -38 24 -39 25 -47 16z m56 -48 c-3 -8 -14 -16
-25 -19 -15 -4 -19 0 -19 17 0 13 3 26 6 29 11 11 44 -13 38 -27z m74 -131 c0
-5 -13 17 -29 50 -16 33 -29 54 -29 47 0 -7 9 -30 20 -52 25 -49 25 -56 0 -63
-17 -4 -26 5 -51 54 l-29 59 30 6 c16 4 30 12 31 18 1 13 57 -104 57 -119z"/>
<path d="M1750 1419 c0 -4 11 -31 24 -60 14 -30 25 -47 25 -39 0 14 -48 112
-49 99z"/>
<path d="M1335 1480 c-11 -4 -23 -6 -27 -4 -4 3 -18 -7 -33 -20 -25 -23 -25
-24 -4 -19 15 4 20 2 15 -5 -5 -8 2 -8 26 0 46 15 49 22 8 14 -35 -7 -35 -7
-10 8 14 9 35 15 47 16 12 0 24 4 27 8 6 10 -24 12 -49 2z"/>
<path d="M2040 1475 c0 -18 -4 -18 -48 -6 -26 8 -34 7 -39 -5 -6 -17 22 -64
39 -64 6 0 3 9 -7 20 -22 25 -8 45 24 35 25 -8 28 -40 5 -49 -15 -6 -15 -8 1
-26 24 -27 13 -50 -25 -50 -31 0 -41 16 -16 26 21 8 29 34 10 34 -8 0 -19 -12
-25 -27 -13 -35 10 -57 47 -43 22 9 24 7 24 -20 0 -25 4 -30 25 -30 20 0 27 6
32 31 4 23 10 28 22 23 9 -4 27 -7 41 -8 31 -1 39 28 14 55 -14 15 -14 21 -4
34 15 18 5 65 -15 65 -7 0 -17 -4 -20 -10 -10 -17 -33 -11 -40 10 -7 23 -45
27 -45 5z m37 -10 c3 -9 -2 -22 -13 -30 -18 -13 -18 -14 -1 -15 22 0 25 -60 2
-60 -8 0 -15 -4 -15 -10 0 -5 7 -10 15 -10 18 0 21 -45 4 -56 -20 -12 -27 17
-24 100 1 45 3 84 4 89 2 13 21 7 28 -8z m83 -37 c0 -25 -19 -32 -46 -17 -28
15 -31 26 -6 31 36 7 52 3 52 -14z m-41 -32 c9 -11 8 -15 -5 -20 -23 -9 -24
-8 -24 14 0 23 13 26 29 6z m39 -28 c21 -21 14 -37 -15 -33 -16 2 -34 4 -40 4
-20 1 -15 17 10 29 29 14 31 14 45 0z"/>
<path d="M2411 1433 c-1 -16 16 -26 24 -13 12 20 25 9 19 -16 -6 -25 -5 -26
29 -21 46 6 72 -18 36 -32 -23 -9 -23 -10 -3 -10 28 -1 38 24 17 44 -11 11
-25 14 -45 10 -27 -6 -29 -5 -24 13 8 24 -10 38 -28 22 -11 -8 -15 -8 -19 2
-4 9 -6 9 -6 1z"/>
<path d="M353 1373 c4 -6 3 -14 -2 -18 -11 -6 -3 -35 10 -35 4 0 6 7 3 15 -5
12 3 15 37 17 41 1 42 1 9 5 -19 3 -41 10 -49 16 -11 9 -13 9 -8 0z"/>
<path d="M2310 1364 c0 -3 12 -9 26 -14 17 -7 24 -15 20 -25 -3 -8 -1 -15 5
-15 23 0 3 44 -23 51 -16 4 -28 5 -28 3z"/>
<path d="M2411 1361 c-8 -5 -16 -23 -17 -39 -1 -24 1 -29 16 -25 27 7 53 40
47 58 -7 17 -25 19 -46 6z"/>
<path d="M394 1329 c-6 -8 -11 -23 -11 -35 -1 -16 5 -20 35 -21 20 0 27 1 15
4 -16 3 -23 13 -25 35 -2 25 -5 28 -14 17z"/>
<path d="M721 1253 c0 -35 2 -63 7 -63 4 0 6 21 4 48 -5 75 -10 82 -11 15z"/>
<path d="M1255 1300 c-3 -5 0 -10 8 -10 8 0 17 -13 20 -28 3 -16 14 -37 24
-48 10 -11 15 -15 11 -9 -4 7 -5 15 -1 18 3 4 1 7 -6 7 -8 0 -11 8 -8 20 3 11
2 18 -3 15 -4 -3 -11 6 -14 20 -7 26 -20 32 -31 15z"/>
<path d="M2434 1279 c-3 -5 -1 -16 6 -24 7 -8 7 -15 1 -19 -5 -4 -12 -2 -16 4
-3 5 -11 10 -16 10 -6 0 -4 -7 5 -15 16 -17 42 -20 51 -6 3 5 -2 16 -10 24
-20 21 -19 26 5 20 11 -3 20 -1 20 4 0 12 -38 14 -46 2z"/>
<path d="M1227 1263 c-2 -5 -3 -23 -2 -41 1 -18 -2 -35 -7 -38 -5 -3 -6 -42
-3 -87 13 -166 13 -255 0 -251 -8 3 -10 -20 -7 -85 3 -71 1 -93 -11 -105 -8
-8 -17 -13 -20 -10 -3 3 -3 -4 0 -15 4 -17 2 -20 -13 -15 -18 5 -18 5 -1 -6
19 -12 41 -4 31 12 -7 11 16 29 28 22 4 -3 8 -11 8 -17 0 -7 -4 -6 -10 3 -8
12 -10 9 -10 -11 0 -26 -3 -28 -62 -44 -5 -2 -48 -3 -98 -4 -49 0 -90 -5 -90
-9 0 -5 18 -8 40 -6 29 2 40 -2 40 -12 0 -10 -8 -13 -25 -10 -17 3 -25 0 -25
-10 0 -8 9 -13 23 -11 17 2 22 -3 22 -23 0 -21 -4 -24 -25 -22 -24 3 -24 3 -8
-14 27 -27 48 -2 48 56 l0 47 47 -2 48 -1 -3 -40 c-3 -35 -42 -94 -62 -94 -4
0 -5 27 -3 60 3 41 1 60 -7 60 -7 0 -11 -16 -9 -43 2 -24 0 -47 -3 -52 -2 -6
1 -20 7 -32 12 -23 12 -23 41 12 16 19 32 35 35 35 8 0 5 -38 -4 -46 -10 -10
-9 -52 2 -58 10 -7 24 112 20 170 -2 30 0 38 11 35 8 -2 26 -3 39 -3 22 0 23
-2 8 -13 -22 -16 -22 -63 1 -88 10 -12 11 -17 3 -12 -11 7 -13 2 -8 -25 4 -18
7 -46 7 -62 0 -16 4 -27 10 -23 9 5 15 935 6 935 -3 0 -7 -3 -9 -7z"/>
<path d="M1149 1203 c0 -10 0 -57 1 -106 1 -72 -2 -92 -18 -112 -18 -22 -21
-23 -41 -8 -19 13 -22 22 -18 66 2 29 2 41 -1 27 l-5 -25 -8 25 c-4 14 -5 -1
-2 -35 3 -33 10 -61 15 -63 22 -9 3 -22 -33 -22 -24 0 -38 -4 -34 -10 8 -13
72 -13 80 0 5 8 11 7 21 -1 12 -10 15 -10 12 2 -2 8 4 13 13 13 12 -1 15 4 11
19 -3 14 -1 18 6 13 9 -5 12 25 12 113 0 67 -2 121 -5 121 -3 0 -5 -8 -6 -17z"/>
<path d="M1205 1210 c-4 -6 -10 -8 -14 -6 -4 3 -8 -16 -8 -42 -1 -46 -1 -46 6
-9 3 21 10 39 16 40 5 1 10 8 11 15 3 15 -3 16 -11 2z"/>
<path d="M682 1173 c-10 -23 -10 -30 3 -43 15 -13 15 -13 9 3 -3 9 -2 17 2 17
5 0 9 11 9 25 0 32 -7 32 -23 -2z"/>
<path d="M2680 1143 c-7 -21 -16 -42 -21 -47 -10 -11 -23 39 -14 53 11 19 -1
12 -23 -13 l-21 -25 30 -19 30 -18 -25 -36 c-13 -20 -22 -39 -19 -41 2 -3 -1
-15 -7 -27 -6 -12 -9 -24 -6 -27 3 -3 16 19 29 48 37 83 70 179 64 185 -3 3
-10 -12 -17 -33z"/>
<path d="M31 1160 c0 -8 6 -35 13 -60 8 -25 15 -36 15 -25 -1 25 -27 106 -28
85z"/>
<path d="M622 1148 c-16 -16 -15 -26 6 -52 26 -33 72 -24 57 11 -5 12 -9 14
-12 6 -3 -7 -14 -13 -25 -13 -12 0 -18 3 -15 7 4 3 1 13 -6 21 -9 13 -9 14 1
8 7 -4 12 -1 12 8 0 19 -2 20 -18 4z"/>
<path d="M1027 1125 c-4 -25 -2 -43 5 -50 8 -7 9 -6 3 4 -5 9 -1 19 10 28 11
7 14 13 8 13 -7 0 -13 10 -15 23 -3 15 -6 10 -11 -18z"/>
<path d="M391 1115 c1 -23 3 -25 6 -7 3 16 11 22 30 22 33 0 22 13 -12 15 -22
1 -25 -3 -24 -30z"/>
<path d="M558 1109 c34 -32 43 -74 20 -98 -7 -7 -8 -12 -3 -11 6 2 12 2 15 0
3 -1 17 -3 33 -5 20 -3 27 1 27 13 0 10 -3 13 -8 7 -6 -9 -14 -10 -47 -6 -5 0
-4 6 3 13 21 21 13 53 -21 86 -18 18 -37 32 -42 32 -6 0 5 -14 23 -31z"/>
<path d="M725 1089 c-5 -38 -4 -54 6 -60 20 -12 3 -22 -36 -21 -19 1 -35 -3
-35 -8 0 -15 80 -12 86 3 3 8 0 25 -5 39 -5 15 -6 41 -1 62 4 20 4 36 0 36 -5
0 -11 -23 -15 -51z"/>
<path d="M2245 1130 c-11 -17 5 -32 21 -19 8 6 14 15 14 20 0 12 -27 11 -35
-1z"/>
<path d="M2411 1114 c-12 -9 -19 -19 -16 -23 2 -5 -16 -27 -41 -50 -42 -38
-46 -45 -40 -74 6 -29 29 -57 47 -57 4 0 15 8 26 18 10 9 13 13 7 9 -7 -5 -23
-7 -36 -5 -17 2 -22 9 -21 26 2 13 -1 21 -7 17 -21 -13 -9 17 16 40 29 27 54
34 34 10 -9 -10 -9 -15 -1 -15 10 0 15 14 12 33 -1 4 6 21 14 37 18 36 56 42
50 9 -4 -18 -2 -19 11 -8 13 11 15 10 12 -7 -2 -11 2 -18 10 -16 9 1 11 -7 9
-25 -3 -16 -9 -27 -14 -26 -5 1 -10 -5 -10 -13 0 -19 17 -13 33 12 12 17 10
26 -10 64 -27 51 -54 65 -85 44z"/>
<path d="M2417 1079 c-19 -26 -11 -65 9 -48 16 13 19 23 5 14 -5 -3 -12 -1
-16 5 -3 5 0 10 7 10 8 0 14 9 15 20 2 25 -2 25 -20 -1z"/>
<path d="M1183 1015 c0 -44 2 -61 4 -37 2 23 2 59 0 80 -2 20 -4 1 -4 -43z"/>
<path d="M2067 1063 c-14 -3 -17 -11 -13 -26 3 -12 11 -54 17 -93 12 -67 11
-72 -11 -101 -26 -37 -29 -102 -6 -138 24 -36 76 -49 120 -31 48 20 46 27 -4
10 -46 -16 -80 -7 -104 28 -9 12 -16 25 -16 29 0 3 28 9 63 12 58 6 132 25
125 33 -2 2 -28 -3 -58 -11 -30 -8 -73 -14 -95 -14 l-40 1 45 15 c25 8 69 17
97 20 49 5 53 4 63 -18 9 -21 10 -20 5 10 -7 47 -31 81 -65 94 -24 9 -30 19
-44 84 -9 40 -15 79 -13 86 2 13 -35 19 -66 10z m43 -13 c-15 -5 -18 -8 -8 -9
12 -1 21 -21 34 -77 13 -55 24 -78 38 -86 27 -14 66 -49 66 -60 0 -4 -15 -8
-32 -8 -18 0 -58 -7 -88 -15 -30 -8 -58 -15 -62 -15 -16 0 -7 40 15 66 22 26
23 29 11 93 -8 39 -9 67 -3 69 16 6 10 32 -8 33 -15 0 -15 2 2 9 11 5 29 8 40
8 16 0 15 -2 -5 -8z"/>
<path d="M60 1047 c0 -15 50 -138 85 -207 40 -80 121 -210 130 -210 7 0 -1 15
-31 55 -35 47 -120 213 -149 289 -24 65 -35 88 -35 73z"/>
<path d="M2446 1034 c-9 -23 -8 -24 18 -22 20 2 23 5 15 20 -12 22 -25 23 -33
2z"/>
<path d="M2344 998 c-4 -6 2 -19 14 -28 12 -10 18 -21 14 -26 -4 -5 5 2 21 15
32 29 33 31 7 26 -11 -2 -20 1 -20 7 0 6 -6 6 -15 -2 -13 -11 -14 -10 -9 4 7
18 -1 22 -12 4z"/>
<path d="M2576 993 c-16 -16 -35 -74 -30 -88 12 -31 30 -14 25 24 -2 8 2 10
10 6 7 -5 10 -3 7 6 -3 8 -1 24 3 37 8 21 0 30 -15 15z"/>
<path d="M2428 943 c-25 -28 -32 -70 -17 -106 l14 -32 6 30 c3 17 1 36 -4 43
-5 6 -7 13 -3 13 3 1 12 2 19 3 6 1 11 7 10 14 -2 7 8 12 23 12 l27 0 -26 -20
c-30 -24 -44 -87 -27 -119 13 -25 35 -28 26 -5 -4 10 1 26 11 38 15 17 15 18
1 8 -21 -17 -29 -3 -20 33 10 37 26 41 51 16 26 -26 36 -11 13 20 -9 14 -22
33 -28 44 -15 26 -56 31 -76 8z"/>
<path d="M1201 936 c-12 -14 -35 -16 -47 -3 -4 4 -12 7 -18 7 -5 0 -1 -6 9
-14 11 -8 24 -12 29 -9 5 4 6 1 2 -6 -5 -7 -2 -10 6 -9 7 2 12 -3 10 -10 -1
-8 2 -11 9 -6 7 4 9 3 5 -4 -3 -6 -3 -13 2 -16 4 -2 8 15 8 40 0 24 -1 44 -2
44 -1 0 -7 -6 -13 -14z"/>
<path d="M761 892 c0 -12 -7 -31 -13 -42 -10 -16 -10 -22 1 -32 12 -11 13 -10
7 6 -4 11 -2 22 4 26 7 4 10 20 7 36 -3 22 -4 24 -6 6z"/>
<path d="M1105 900 c-3 -5 1 -10 9 -10 8 0 17 -8 19 -17 4 -17 5 -17 6 0 1 24
21 22 21 -3 0 -13 7 -20 20 -20 21 0 27 15 10 25 -6 4 -7 11 -4 17 4 6 2 8 -4
4 -6 -3 -13 -2 -17 4 -8 13 -52 13 -60 0z"/>
<path d="M2912 823 c-38 -27 -69 -49 -67 -51 3 -3 131 73 150 90 5 5 5 8 -1 8
-6 0 -43 -21 -82 -47z"/>
<path d="M1675 850 c-11 -17 5 -32 21 -19 8 6 14 15 14 20 0 12 -27 11 -35 -1z"/>
<path d="M635 832 c-6 -4 -12 -18 -12 -31 -1 -13 1 -21 4 -17 3 3 12 1 19 -5
8 -7 14 -7 19 1 4 6 1 9 -7 8 -9 -2 -12 6 -10 25 4 29 3 31 -13 19z"/>
<path d="M690 816 c0 -16 7 -27 20 -31 16 -5 18 -10 9 -33 -10 -26 -9 -26 8
-9 14 14 15 20 5 35 -6 9 -16 27 -22 40 -12 29 -20 28 -20 -2z"/>
<path d="M1826 833 c-11 -11 -7 -25 6 -17 7 4 8 3 4 -4 -4 -6 -13 -9 -21 -5
-9 3 -15 -1 -15 -10 0 -8 -25 -40 -56 -71 -32 -33 -54 -64 -52 -74 1 -9 -1
-23 -5 -29 -5 -7 -5 -17 -2 -23 8 -13 42 -13 51 1 4 8 9 7 15 -2 6 -10 12 -9
29 6 27 24 54 11 58 -30 3 -24 1 -27 -20 -22 -60 15 -146 19 -153 7 -11 -18
44 -70 76 -70 22 0 26 -4 22 -20 -4 -13 -17 -22 -42 -26 -41 -8 -91 -31 -91
-43 0 -15 49 -53 60 -46 8 5 5 15 -11 31 -27 28 -25 30 27 42 30 7 45 6 59 -4
23 -17 69 -18 98 -3 21 12 21 11 4 -8 -9 -11 -14 -23 -10 -27 4 -4 1 -4 -8 -1
-18 7 -109 -31 -109 -45 0 -6 5 -10 11 -10 5 0 7 5 3 12 -5 8 -2 9 9 5 20 -7
116 31 119 47 0 6 2 22 3 36 2 14 8 51 14 83 7 32 9 73 6 90 -10 44 -42 95
-65 102 -21 7 -27 43 -11 61 22 24 20 90 -3 67z m-25 -100 c-9 -4 -10 -8 -2
-12 8 -5 7 -19 -2 -52 -12 -40 -16 -44 -42 -42 -16 1 -35 8 -42 16 -12 12 -10
19 13 46 26 31 56 50 79 50 6 -1 4 -3 -4 -6z m63 -66 c37 -49 37 -169 0 -224
-12 -20 -22 -24 -52 -21 -32 3 -37 7 -40 31 -3 28 -1 30 51 42 22 4 28 11 26
28 -1 12 1 30 5 39 10 21 -8 55 -34 63 -23 7 -24 13 -10 50 12 31 26 29 54 -8z
m-61 -123 c50 -8 43 -27 -14 -36 -37 -7 -49 -4 -81 17 -21 14 -38 28 -38 31 0
6 34 3 133 -12z"/>
<path d="M1817 666 c-8 -19 15 -37 32 -26 17 10 7 40 -13 40 -7 0 -16 -6 -19
-14z"/>
<path d="M902 769 c3 -16 1 -29 -4 -29 -4 0 -8 -10 -7 -22 0 -15 2 -18 6 -8 3
8 12 23 20 32 8 9 12 21 9 27 -4 5 1 14 10 19 14 8 12 10 -10 10 -25 0 -27 -4
-24 -29z"/>
<path d="M2428 778 c-4 -10 -17 -18 -30 -18 -17 0 -19 -3 -10 -12 7 -7 12 -20
12 -29 0 -12 6 -16 20 -12 11 3 20 12 20 19 0 8 6 14 13 14 8 0 9 2 1 8 -7 4
-13 16 -16 27 -3 18 -4 18 -10 3z"/>
<path d="M965 762 c-6 -4 -12 -16 -12 -27 -2 -29 35 -44 73 -31 25 9 29 15 24
35 -3 14 -11 26 -18 29 -7 2 -10 -2 -6 -12 3 -9 1 -16 -4 -16 -6 0 -13 8 -15
18 -4 16 -5 16 -6 0 -1 -22 -18 -24 -23 -3 -2 8 -8 11 -13 7z"/>
<path d="M2262 733 c-43 -51 -50 -92 -22 -138 25 -40 21 -70 -9 -60 -10 3 -24
-1 -31 -10 -8 -10 -17 -12 -24 -6 -14 12 -30 2 -39 -24 -6 -17 -4 -16 11 4 12
15 22 20 26 13 23 -37 -244 -163 -424 -201 -120 -25 -364 -31 -416 -10 -16 6
-40 11 -53 10 -13 0 -49 6 -79 14 -77 20 -77 11 0 -13 221 -71 550 -46 793 61
77 34 192 104 214 130 7 10 19 17 26 17 6 0 20 9 30 20 10 11 14 20 10 20 -5
0 0 6 10 14 18 13 18 14 -3 25 -12 6 -22 18 -22 26 0 7 -5 15 -12 17 -16 6 28
68 49 68 9 0 13 -6 10 -15 -4 -8 -2 -17 4 -20 5 -4 7 -22 3 -43 l-7 -37 24 20
c13 11 26 23 29 26 3 4 13 8 24 10 10 2 26 15 34 29 l16 25 -26 -24 c-33 -29
-48 -21 -48 28 0 70 -48 82 -98 24z"/>
<path d="M865 740 c-4 -6 -11 -8 -16 -5 -5 4 -9 1 -9 -5 0 -6 -4 -9 -9 -6 -4
3 -7 -8 -5 -25 4 -35 -19 -48 -84 -46 -23 1 -42 -1 -42 -5 0 -5 11 -8 24 -8
21 0 25 -5 29 -37 l4 -38 1 38 c2 30 6 37 22 37 16 0 20 -7 20 -33 0 -18 -5
-38 -10 -43 -7 -7 -6 -11 5 -11 11 0 15 12 15 48 l0 47 55 1 c49 0 55 -2 55
-20 0 -19 -2 -19 -21 -5 -12 8 -28 12 -35 9 -23 -9 -16 -21 11 -18 21 2 25 -2
25 -26 0 -27 1 -28 26 -17 15 7 21 14 15 16 -6 2 -11 21 -11 43 0 27 -4 39
-12 38 -19 -4 -77 11 -83 21 -3 5 7 20 22 34 15 14 25 26 21 26 -4 0 -10 -5
-13 -10z"/>
<path d="M2715 624 c-27 -37 -87 -108 -134 -158 -73 -78 -76 -82 -17 -26 77
75 220 250 203 250 -2 0 -25 -30 -52 -66z"/>
<path d="M2850 569 c-74 -49 -130 -89 -125 -89 6 0 22 8 35 17 14 10 37 25 51
33 108 62 189 114 189 121 0 16 -14 8 -150 -82z"/>
<path d="M301 590 c69 -107 324 -324 449 -384 41 -19 35 -15 -108 79 -103 67
-215 168 -316 285 -29 34 -39 41 -25 20z"/>
<path d="M825 567 c-3 -7 -4 -28 -2 -47 3 -28 11 -39 38 -54 l34 -18 -29 24
c-21 18 -27 30 -23 43 4 9 2 24 -4 31 -6 7 -8 18 -4 24 3 5 4 10 0 10 -3 0 -8
-6 -10 -13z"/>
<path d="M1407 573 c-4 -3 -7 -14 -7 -24 0 -9 -7 -20 -16 -23 -8 -3 -12 -11
-9 -16 4 -7 -2 -9 -18 -5 -29 8 -44 -9 -27 -30 9 -11 6 -14 -17 -17 -33 -4
-38 -29 -7 -42 15 -7 21 -18 20 -38 -1 -15 -6 -28 -13 -28 -6 0 -14 -4 -17 -8
-3 -5 5 -8 17 -8 14 1 21 -4 19 -14 -3 -11 1 -10 16 3 17 15 20 16 25 3 3 -8
15 -14 26 -13 21 1 30 17 10 17 -5 0 -7 6 -3 13 4 6 4 9 -1 5 -4 -4 -14 -3
-22 4 -10 8 -17 7 -29 -8 -12 -15 -15 -16 -11 -2 3 9 3 19 -1 23 -4 4 -7 19
-7 33 0 20 -5 27 -19 27 -11 0 -21 6 -23 13 -3 8 6 12 26 12 30 0 41 13 21 25
-20 12 -9 26 18 23 17 -2 26 1 25 10 -2 6 4 12 12 12 9 0 15 10 15 26 0 16 4
23 12 18 7 -4 8 -3 4 4 -8 14 -10 14 -19 5z"/>
<path d="M1437 554 c-11 -14 -17 -28 -14 -31 9 -8 27 7 27 23 0 9 5 12 12 8 7
-4 8 -3 4 4 -4 7 -2 12 3 12 12 0 14 -23 5 -57 -4 -13 -11 -20 -18 -16 -6 3
-8 2 -3 -2 11 -13 46 -13 44 -1 -1 6 4 10 11 8 8 -1 11 2 7 9 -5 7 1 10 16 7
12 -1 24 -9 27 -17 3 -9 0 -11 -8 -6 -9 6 -11 4 -5 -5 6 -10 4 -12 -7 -7 -23
8 -39 -12 -27 -35 5 -10 7 -18 3 -18 -3 0 -1 -6 5 -14 13 -15 -1 -32 -18 -22
-5 4 -7 -3 -4 -15 4 -12 0 -25 -8 -30 -12 -7 -11 -11 5 -26 10 -10 16 -13 12
-6 -4 7 -4 23 0 37 5 22 8 23 25 13 14 -9 21 -9 31 1 11 11 9 17 -10 32 -13
11 -21 24 -17 30 4 6 1 17 -5 25 -10 12 -9 15 8 15 18 0 32 18 32 40 0 5 -9
14 -19 19 -14 8 -25 6 -45 -10 -28 -22 -32 -19 -15 12 7 15 7 24 -2 35 -17 20
-31 17 -52 -12z"/>
<path d="M900 530 c0 -12 5 -18 10 -15 6 4 10 -5 10 -19 0 -21 5 -26 25 -26
22 0 25 4 25 36 0 32 -2 35 -16 23 -10 -8 -12 -15 -5 -17 6 -2 11 -9 11 -15 0
-7 -4 -7 -12 1 -7 7 -13 20 -13 30 0 9 -8 18 -17 20 -13 2 -18 -3 -18 -18z"/>
<path d="M2031 522 c-13 -24 2 -46 27 -39 12 2 23 0 26 -7 3 -8 5 -7 5 1 1 7
8 10 16 7 8 -4 15 -1 15 5 0 6 -6 11 -13 11 -7 0 -18 9 -25 20 -15 25 -38 26
-51 2z"/>
<path d="M1177 480 c-3 -19 -3 -57 2 -85 8 -45 9 -47 11 -15 1 19 5 44 9 55 5
11 5 25 1 30 -4 6 -10 19 -12 30 -3 14 -6 10 -11 -15z"/>
<path d="M1395 474 c-19 -19 -19 -38 0 -54 20 -16 45 3 45 35 0 29 -25 39 -45
19z"/>
<path d="M1438 408 c-8 -7 -18 -21 -21 -30 -5 -13 -1 -16 16 -12 24 4 49 32
41 45 -7 12 -18 11 -36 -3z"/>
<path d="M2927 335 c-38 -25 -73 -45 -77 -45 -5 0 -10 -4 -12 -8 -1 -5 -29
-25 -61 -46 -31 -21 -66 -50 -77 -64 -18 -22 -19 -28 -7 -46 26 -39 53 -32
172 48 62 42 117 76 124 76 6 0 11 9 11 19 0 16 -26 2 -132 -71 -100 -68 -137
-88 -148 -80 -37 23 -15 47 130 145 122 82 166 117 148 117 -1 0 -34 -20 -71
-45z"/>
<path d="M790 185 c0 -5 49 -31 85 -45 35 -13 31 -5 -7 15 -44 23 -78 35 -78
30z"/>
<path d="M910 127 c0 -8 140 -60 146 -54 3 3 -21 14 -53 25 -32 11 -66 23 -75
27 -10 4 -18 5 -18 2z"/>
</g>
</svg>
